<?xml version="1.0" standalone="no"?>
<!DOCTYPE svg PUBLIC "-//W3C//DTD SVG 20010904//EN"
 "http://www.w3.org/TR/2001/REC-SVG-20010904/DTD/svg10.dtd">
<svg version="1.0" xmlns="http://www.w3.org/2000/svg"
 width="500.000000pt" height="500.000000pt" viewBox="0 0 500.000000 500.000000"
 preserveAspectRatio="xMidYMid meet">
<metadata>
Created by potrace 1.14, written by Peter Selinger 2001-2017
</metadata>
<g transform="translate(0.000000,500.000000) scale(0.100000,-0.100000)"
fill="#000000" stroke="none">
<path d="M1945 3860 c-119 -25 -240 -93 -323 -184 -59 -65 -124 -192 -141
-274 -7 -34 -11 -235 -11 -570 0 -581 1 -588 71 -723 73 -140 216 -252 374
-294 50 -13 144 -15 590 -15 584 0 586 0 715 63 89 43 214 168 258 258 60 125
62 141 62 714 0 581 -1 593 -68 719 -69 131 -179 226 -330 285 l-67 26 -545 2
c-300 1 -563 -2 -585 -7z m558 -604 c37 -11 54 -12 77 -3 25 9 37 8 73 -10
l44 -21 59 20 c49 16 65 18 96 9 82 -25 137 -102 145 -205 6 -70 14 -82 59
-101 39 -16 53 -53 35 -92 -11 -23 -16 -25 -60 -21 -89 9 -147 75 -157 181 -7
69 -22 105 -46 113 -30 9 -40 -7 -27 -44 6 -18 8 -43 5 -55 -3 -13 4 -48 15
-78 27 -69 35 -178 20 -252 -61 -289 -360 -462 -636 -367 -201 69 -328 249
-328 465 1 145 51 255 160 355 73 67 160 109 258 124 47 7 157 -2 208 -18z"/>
<path d="M2245 3236 c-132 -32 -240 -123 -304 -256 -35 -72 -36 -79 -36 -186
0 -110 0 -111 42 -196 64 -127 152 -202 292 -244 63 -19 204 -13 266 11 242
92 356 330 277 581 -12 39 -16 67 -10 77 5 10 2 31 -8 59 -22 54 -19 52 -43
38 -18 -9 -21 -8 -21 10 0 12 5 30 11 42 9 17 8 19 -9 14 -11 -4 -23 -2 -27 5
-4 6 -23 18 -42 26 -31 12 -38 12 -57 0 -17 -11 -27 -12 -42 -4 -61 34 -198
45 -289 23z m325 -69 c0 -29 66 -112 112 -140 26 -17 48 -31 48 -33 0 -2 -9
-8 -20 -14 -17 -9 -28 -7 -55 10 -67 41 -133 138 -119 174 7 19 34 21 34 3z
m122 -32 c-4 -37 -28 -48 -39 -18 -4 10 2 23 16 35 13 10 24 18 25 18 1 0 0
-16 -2 -35z m-232 -235 c94 -26 179 -109 187 -184 5 -39 3 -46 -24 -66 -23
-16 -29 -27 -25 -46 3 -19 0 -26 -17 -31 -12 -3 -21 -13 -21 -24 0 -23 -16
-33 -38 -23 -9 4 -27 6 -40 5 -13 -2 -25 4 -28 14 -5 12 -10 13 -20 5 -14 -12
-54 3 -54 20 0 5 -6 7 -14 4 -7 -3 -21 3 -31 13 -10 10 -25 18 -34 18 -9 0
-17 10 -20 25 -1 14 -8 28 -15 32 -8 6 -8 12 1 27 10 15 9 22 -2 31 -9 7 -15
30 -15 52 0 100 97 159 210 128z"/>
<path d="M2338 2779 c-24 -13 -23 -61 0 -82 23 -21 27 -21 46 -1 21 21 20 57
-2 77 -21 20 -21 20 -44 6z"/>
<path d="M2485 2766 c-27 -20 -24 -84 5 -108 28 -23 53 -23 73 0 23 25 21 64
-4 96 -23 29 -46 33 -74 12z"/>
<path d="M2400 2655 c-15 -18 -14 -20 22 -29 27 -6 27 -5 16 19 -13 29 -21 31
-38 10z"/>
<path d="M2798 3213 c7 -3 16 -2 19 1 4 3 -2 6 -13 5 -11 0 -14 -3 -6 -6z"/>
<path d="M2860 3144 c0 -6 7 -19 16 -30 14 -18 14 -18 3 6 -14 31 -19 36 -19
24z"/>
<path d="M2892 3060 c0 -19 2 -27 5 -17 2 9 2 25 0 35 -3 9 -5 1 -5 -18z"/>
<path d="M2951 3074 c0 -11 3 -14 6 -6 3 7 2 16 -1 19 -3 4 -6 -2 -5 -13z"/>
<path d="M2902 2990 c0 -14 2 -19 5 -12 2 6 2 18 0 25 -3 6 -5 1 -5 -13z"/>
<path d="M3051 2884 c0 -11 3 -14 6 -6 3 7 2 16 -1 19 -3 4 -6 -2 -5 -13z"/>
<path d="M1727 1564 c-4 -4 -7 -106 -7 -226 l0 -218 29 0 c16 0 31 5 33 11 3
8 14 7 35 -5 75 -38 152 -4 174 77 16 61 7 161 -17 194 -41 55 -86 63 -166 28
-15 -6 -17 2 -20 67 -3 70 -4 73 -28 76 -14 2 -29 0 -33 -4z m190 -201 c24
-37 24 -129 0 -166 -13 -21 -25 -27 -53 -27 -67 0 -74 10 -74 105 0 75 2 85
22 99 36 26 85 21 105 -11z"/>
<path d="M3227 1564 c-4 -4 -7 -38 -7 -75 l0 -68 -35 15 c-44 18 -59 18 -101
-2 -91 -43 -102 -256 -15 -307 37 -21 83 -22 124 -1 21 12 32 13 35 5 2 -6 17
-11 33 -11 l29 0 -2 223 -3 222 -25 3 c-14 2 -29 0 -33 -4z m-32 -186 c24 -11
25 -15 25 -98 0 -83 -1 -87 -25 -98 -39 -18 -80 -14 -101 9 -14 16 -19 36 -19
84 0 53 4 68 24 89 27 28 56 33 96 14z"/>
<path d="M2194 1425 c-41 -24 -42 -25 -47 -4 -4 16 -12 20 -34 17 l-28 -3 -3
-157 -3 -158 36 0 35 0 0 108 c0 100 2 110 23 130 13 12 39 23 58 25 30 2 34
6 34 32 0 39 -19 42 -71 10z"/>
<path d="M2363 1431 c-24 -11 -43 -27 -43 -35 0 -24 38 -29 76 -11 41 19 89
12 104 -15 16 -31 12 -39 -25 -45 -19 -3 -51 -8 -72 -11 -88 -14 -124 -114
-64 -175 36 -35 79 -38 134 -9 31 17 37 17 37 5 0 -10 10 -15 30 -15 l30 0 0
125 c0 169 -13 192 -114 201 -37 4 -62 0 -93 -15z m145 -193 c-3 -38 -7 -45
-39 -62 -44 -24 -86 -16 -95 18 -12 49 31 83 109 85 27 1 28 -1 25 -41z"/>
<path d="M2778 1426 c-45 -24 -46 -24 -51 -4 -4 15 -12 19 -34 16 l-28 -3 -3
-157 -3 -158 36 0 35 0 0 113 0 112 34 23 c19 13 45 22 58 20 36 -5 48 -43 48
-160 l0 -108 31 0 31 0 -4 140 c-3 124 -5 142 -23 159 -33 33 -74 36 -127 7z"/>
</g>
</svg>
